%TF.GenerationSoftware,KiCad,Pcbnew,(6.0.9)*%
%TF.CreationDate,2023-05-03T02:02:48+02:00*%
%TF.ProjectId,esp-merged_v2,6573702d-6d65-4726-9765-645f76322e6b,rev?*%
%TF.SameCoordinates,Original*%
%TF.FileFunction,Legend,Top*%
%TF.FilePolarity,Positive*%
%FSLAX46Y46*%
G04 Gerber Fmt 4.6, Leading zero omitted, Abs format (unit mm)*
G04 Created by KiCad (PCBNEW (6.0.9)) date 2023-05-03 02:02:48*
%MOMM*%
%LPD*%
G01*
G04 APERTURE LIST*
%ADD10C,0.100000*%
%ADD11C,0.300000*%
%ADD12C,0.150000*%
%ADD13C,0.120000*%
G04 APERTURE END LIST*
D10*
X254806226Y-34500000D02*
G75*
G03*
X254806226Y-34500000I-806226J0D01*
G01*
X255030776Y-131450000D02*
G75*
G03*
X255030776Y-131450000I-1030776J0D01*
G01*
X166029352Y-131450000D02*
G75*
G03*
X166029352Y-131450000I-1079352J0D01*
G01*
X165900000Y-34500000D02*
G75*
G03*
X165900000Y-34500000I-950000J0D01*
G01*
D11*
X163821428Y-102371428D02*
X162750000Y-102371428D01*
X162535714Y-102300000D01*
X162392857Y-102157142D01*
X162321428Y-101942857D01*
X162321428Y-101800000D01*
X162321428Y-103800000D02*
X162321428Y-103085714D01*
X163821428Y-103085714D01*
X162464285Y-105157142D02*
X162392857Y-105085714D01*
X162321428Y-104871428D01*
X162321428Y-104728571D01*
X162392857Y-104514285D01*
X162535714Y-104371428D01*
X162678571Y-104300000D01*
X162964285Y-104228571D01*
X163178571Y-104228571D01*
X163464285Y-104300000D01*
X163607142Y-104371428D01*
X163750000Y-104514285D01*
X163821428Y-104728571D01*
X163821428Y-104871428D01*
X163750000Y-105085714D01*
X163678571Y-105157142D01*
X163821428Y-106228571D02*
X162750000Y-106228571D01*
X162535714Y-106157142D01*
X162392857Y-106014285D01*
X162321428Y-105800000D01*
X162321428Y-105657142D01*
X162321428Y-107657142D02*
X162321428Y-106942857D01*
X163821428Y-106942857D01*
X162464285Y-109014285D02*
X162392857Y-108942857D01*
X162321428Y-108728571D01*
X162321428Y-108585714D01*
X162392857Y-108371428D01*
X162535714Y-108228571D01*
X162678571Y-108157142D01*
X162964285Y-108085714D01*
X163178571Y-108085714D01*
X163464285Y-108157142D01*
X163607142Y-108228571D01*
X163750000Y-108371428D01*
X163821428Y-108585714D01*
X163821428Y-108728571D01*
X163750000Y-108942857D01*
X163678571Y-109014285D01*
X163821428Y-110085714D02*
X162750000Y-110085714D01*
X162535714Y-110014285D01*
X162392857Y-109871428D01*
X162321428Y-109657142D01*
X162321428Y-109514285D01*
X162321428Y-111514285D02*
X162321428Y-110800000D01*
X163821428Y-110800000D01*
X162464285Y-112871428D02*
X162392857Y-112800000D01*
X162321428Y-112585714D01*
X162321428Y-112442857D01*
X162392857Y-112228571D01*
X162535714Y-112085714D01*
X162678571Y-112014285D01*
X162964285Y-111942857D01*
X163178571Y-111942857D01*
X163464285Y-112014285D01*
X163607142Y-112085714D01*
X163750000Y-112228571D01*
X163821428Y-112442857D01*
X163821428Y-112585714D01*
X163750000Y-112800000D01*
X163678571Y-112871428D01*
X163821428Y-113942857D02*
X162750000Y-113942857D01*
X162535714Y-113871428D01*
X162392857Y-113728571D01*
X162321428Y-113514285D01*
X162321428Y-113371428D01*
X162321428Y-115371428D02*
X162321428Y-114657142D01*
X163821428Y-114657142D01*
X162464285Y-116728571D02*
X162392857Y-116657142D01*
X162321428Y-116442857D01*
X162321428Y-116300000D01*
X162392857Y-116085714D01*
X162535714Y-115942857D01*
X162678571Y-115871428D01*
X162964285Y-115800000D01*
X163178571Y-115800000D01*
X163464285Y-115871428D01*
X163607142Y-115942857D01*
X163750000Y-116085714D01*
X163821428Y-116300000D01*
X163821428Y-116442857D01*
X163750000Y-116657142D01*
X163678571Y-116728571D01*
X244300000Y-113663571D02*
X243800000Y-112949285D01*
X243442857Y-113663571D02*
X243442857Y-112163571D01*
X244014285Y-112163571D01*
X244157142Y-112235000D01*
X244228571Y-112306428D01*
X244300000Y-112449285D01*
X244300000Y-112663571D01*
X244228571Y-112806428D01*
X244157142Y-112877857D01*
X244014285Y-112949285D01*
X243442857Y-112949285D01*
X245157142Y-113663571D02*
X245014285Y-113592142D01*
X244942857Y-113520714D01*
X244871428Y-113377857D01*
X244871428Y-112949285D01*
X244942857Y-112806428D01*
X245014285Y-112735000D01*
X245157142Y-112663571D01*
X245371428Y-112663571D01*
X245514285Y-112735000D01*
X245585714Y-112806428D01*
X245657142Y-112949285D01*
X245657142Y-113377857D01*
X245585714Y-113520714D01*
X245514285Y-113592142D01*
X245371428Y-113663571D01*
X245157142Y-113663571D01*
X246157142Y-112663571D02*
X246942857Y-112663571D01*
X246157142Y-113663571D01*
X246942857Y-113663571D01*
X247371428Y-112663571D02*
X247728571Y-113663571D01*
X248085714Y-112663571D02*
X247728571Y-113663571D01*
X247585714Y-114020714D01*
X247514285Y-114092142D01*
X247371428Y-114163571D01*
X249300000Y-113592142D02*
X249157142Y-113663571D01*
X248871428Y-113663571D01*
X248728571Y-113592142D01*
X248657142Y-113520714D01*
X248585714Y-113377857D01*
X248585714Y-112949285D01*
X248657142Y-112806428D01*
X248728571Y-112735000D01*
X248871428Y-112663571D01*
X249157142Y-112663571D01*
X249300000Y-112735000D01*
X249942857Y-113663571D02*
X249942857Y-112163571D01*
X250085714Y-113092142D02*
X250514285Y-113663571D01*
X250514285Y-112663571D02*
X249942857Y-113235000D01*
X251157142Y-113663571D02*
X251157142Y-112663571D01*
X251157142Y-112163571D02*
X251085714Y-112235000D01*
X251157142Y-112306428D01*
X251228571Y-112235000D01*
X251157142Y-112163571D01*
X251157142Y-112306428D01*
X241442857Y-114578571D02*
X242442857Y-114578571D01*
X241442857Y-116078571D01*
X242442857Y-116078571D01*
X243657142Y-116078571D02*
X243657142Y-114578571D01*
X243657142Y-116007142D02*
X243514285Y-116078571D01*
X243228571Y-116078571D01*
X243085714Y-116007142D01*
X243014285Y-115935714D01*
X242942857Y-115792857D01*
X242942857Y-115364285D01*
X243014285Y-115221428D01*
X243085714Y-115150000D01*
X243228571Y-115078571D01*
X243514285Y-115078571D01*
X243657142Y-115150000D01*
X245014285Y-116078571D02*
X245014285Y-115292857D01*
X244942857Y-115150000D01*
X244800000Y-115078571D01*
X244514285Y-115078571D01*
X244371428Y-115150000D01*
X245014285Y-116007142D02*
X244871428Y-116078571D01*
X244514285Y-116078571D01*
X244371428Y-116007142D01*
X244300000Y-115864285D01*
X244300000Y-115721428D01*
X244371428Y-115578571D01*
X244514285Y-115507142D01*
X244871428Y-115507142D01*
X245014285Y-115435714D01*
X245942857Y-116078571D02*
X245800000Y-116007142D01*
X245728571Y-115864285D01*
X245728571Y-114578571D01*
X246514285Y-115078571D02*
X246514285Y-116078571D01*
X246514285Y-115221428D02*
X246585714Y-115150000D01*
X246728571Y-115078571D01*
X246942857Y-115078571D01*
X247085714Y-115150000D01*
X247157142Y-115292857D01*
X247157142Y-116078571D01*
X248442857Y-116007142D02*
X248300000Y-116078571D01*
X248014285Y-116078571D01*
X247871428Y-116007142D01*
X247800000Y-115864285D01*
X247800000Y-115292857D01*
X247871428Y-115150000D01*
X248014285Y-115078571D01*
X248300000Y-115078571D01*
X248442857Y-115150000D01*
X248514285Y-115292857D01*
X248514285Y-115435714D01*
X247800000Y-115578571D01*
X250942857Y-115078571D02*
X250942857Y-116078571D01*
X250300000Y-115078571D02*
X250300000Y-115864285D01*
X250371428Y-116007142D01*
X250514285Y-116078571D01*
X250728571Y-116078571D01*
X250871428Y-116007142D01*
X250942857Y-115935714D01*
X251871428Y-116078571D02*
X251728571Y-116007142D01*
X251657142Y-115864285D01*
X251657142Y-114578571D01*
X253014285Y-116007142D02*
X252871428Y-116078571D01*
X252585714Y-116078571D01*
X252442857Y-116007142D01*
X252371428Y-115864285D01*
X252371428Y-115292857D01*
X252442857Y-115150000D01*
X252585714Y-115078571D01*
X252871428Y-115078571D01*
X253014285Y-115150000D01*
X253085714Y-115292857D01*
X253085714Y-115435714D01*
X252371428Y-115578571D01*
X241692857Y-118493571D02*
X241692857Y-117493571D01*
X241692857Y-117636428D02*
X241764285Y-117565000D01*
X241907142Y-117493571D01*
X242121428Y-117493571D01*
X242264285Y-117565000D01*
X242335714Y-117707857D01*
X242335714Y-118493571D01*
X242335714Y-117707857D02*
X242407142Y-117565000D01*
X242550000Y-117493571D01*
X242764285Y-117493571D01*
X242907142Y-117565000D01*
X242978571Y-117707857D01*
X242978571Y-118493571D01*
X244264285Y-118422142D02*
X244121428Y-118493571D01*
X243835714Y-118493571D01*
X243692857Y-118422142D01*
X243621428Y-118279285D01*
X243621428Y-117707857D01*
X243692857Y-117565000D01*
X243835714Y-117493571D01*
X244121428Y-117493571D01*
X244264285Y-117565000D01*
X244335714Y-117707857D01*
X244335714Y-117850714D01*
X243621428Y-117993571D01*
X244978571Y-118493571D02*
X244978571Y-117493571D01*
X244978571Y-117779285D02*
X245050000Y-117636428D01*
X245121428Y-117565000D01*
X245264285Y-117493571D01*
X245407142Y-117493571D01*
X246550000Y-117493571D02*
X246550000Y-118707857D01*
X246478571Y-118850714D01*
X246407142Y-118922142D01*
X246264285Y-118993571D01*
X246050000Y-118993571D01*
X245907142Y-118922142D01*
X246550000Y-118422142D02*
X246407142Y-118493571D01*
X246121428Y-118493571D01*
X245978571Y-118422142D01*
X245907142Y-118350714D01*
X245835714Y-118207857D01*
X245835714Y-117779285D01*
X245907142Y-117636428D01*
X245978571Y-117565000D01*
X246121428Y-117493571D01*
X246407142Y-117493571D01*
X246550000Y-117565000D01*
X247835714Y-118422142D02*
X247692857Y-118493571D01*
X247407142Y-118493571D01*
X247264285Y-118422142D01*
X247192857Y-118279285D01*
X247192857Y-117707857D01*
X247264285Y-117565000D01*
X247407142Y-117493571D01*
X247692857Y-117493571D01*
X247835714Y-117565000D01*
X247907142Y-117707857D01*
X247907142Y-117850714D01*
X247192857Y-117993571D01*
X249192857Y-118493571D02*
X249192857Y-116993571D01*
X249192857Y-118422142D02*
X249050000Y-118493571D01*
X248764285Y-118493571D01*
X248621428Y-118422142D01*
X248550000Y-118350714D01*
X248478571Y-118207857D01*
X248478571Y-117779285D01*
X248550000Y-117636428D01*
X248621428Y-117565000D01*
X248764285Y-117493571D01*
X249050000Y-117493571D01*
X249192857Y-117565000D01*
X250907142Y-117493571D02*
X251264285Y-118493571D01*
X251621428Y-117493571D01*
X252978571Y-118493571D02*
X252121428Y-118493571D01*
X252550000Y-118493571D02*
X252550000Y-116993571D01*
X252407142Y-117207857D01*
X252264285Y-117350714D01*
X252121428Y-117422142D01*
D12*
%TO.C,BT1*%
X168914285Y-50528571D02*
X169057142Y-50576190D01*
X169104761Y-50623809D01*
X169152380Y-50719047D01*
X169152380Y-50861904D01*
X169104761Y-50957142D01*
X169057142Y-51004761D01*
X168961904Y-51052380D01*
X168580952Y-51052380D01*
X168580952Y-50052380D01*
X168914285Y-50052380D01*
X169009523Y-50100000D01*
X169057142Y-50147619D01*
X169104761Y-50242857D01*
X169104761Y-50338095D01*
X169057142Y-50433333D01*
X169009523Y-50480952D01*
X168914285Y-50528571D01*
X168580952Y-50528571D01*
X169438095Y-50052380D02*
X170009523Y-50052380D01*
X169723809Y-51052380D02*
X169723809Y-50052380D01*
X170866666Y-51052380D02*
X170295238Y-51052380D01*
X170580952Y-51052380D02*
X170580952Y-50052380D01*
X170485714Y-50195238D01*
X170390476Y-50290476D01*
X170295238Y-50338095D01*
X166725095Y-121896857D02*
X168248904Y-121896857D01*
X167487000Y-122658761D02*
X167487000Y-121134952D01*
X166725095Y-40616857D02*
X168248904Y-40616857D01*
%TO.C,U2*%
X202838095Y-119152380D02*
X202838095Y-119961904D01*
X202885714Y-120057142D01*
X202933333Y-120104761D01*
X203028571Y-120152380D01*
X203219047Y-120152380D01*
X203314285Y-120104761D01*
X203361904Y-120057142D01*
X203409523Y-119961904D01*
X203409523Y-119152380D01*
X203838095Y-119247619D02*
X203885714Y-119200000D01*
X203980952Y-119152380D01*
X204219047Y-119152380D01*
X204314285Y-119200000D01*
X204361904Y-119247619D01*
X204409523Y-119342857D01*
X204409523Y-119438095D01*
X204361904Y-119580952D01*
X203790476Y-120152380D01*
X204409523Y-120152380D01*
%TO.C,D1*%
X186952380Y-89238095D02*
X185952380Y-89238095D01*
X185952380Y-89000000D01*
X186000000Y-88857142D01*
X186095238Y-88761904D01*
X186190476Y-88714285D01*
X186380952Y-88666666D01*
X186523809Y-88666666D01*
X186714285Y-88714285D01*
X186809523Y-88761904D01*
X186904761Y-88857142D01*
X186952380Y-89000000D01*
X186952380Y-89238095D01*
X186952380Y-87714285D02*
X186952380Y-88285714D01*
X186952380Y-88000000D02*
X185952380Y-88000000D01*
X186095238Y-88095238D01*
X186190476Y-88190476D01*
X186238095Y-88285714D01*
%TO.C,J2*%
X242266666Y-53752380D02*
X242266666Y-54466666D01*
X242219047Y-54609523D01*
X242123809Y-54704761D01*
X241980952Y-54752380D01*
X241885714Y-54752380D01*
X242695238Y-53847619D02*
X242742857Y-53800000D01*
X242838095Y-53752380D01*
X243076190Y-53752380D01*
X243171428Y-53800000D01*
X243219047Y-53847619D01*
X243266666Y-53942857D01*
X243266666Y-54038095D01*
X243219047Y-54180952D01*
X242647619Y-54752380D01*
X243266666Y-54752380D01*
%TO.C,F1*%
X187328571Y-105233333D02*
X187328571Y-105566666D01*
X187852380Y-105566666D02*
X186852380Y-105566666D01*
X186852380Y-105090476D01*
X187852380Y-104185714D02*
X187852380Y-104757142D01*
X187852380Y-104471428D02*
X186852380Y-104471428D01*
X186995238Y-104566666D01*
X187090476Y-104661904D01*
X187138095Y-104757142D01*
%TO.C,R1*%
X189833333Y-67752380D02*
X189500000Y-67276190D01*
X189261904Y-67752380D02*
X189261904Y-66752380D01*
X189642857Y-66752380D01*
X189738095Y-66800000D01*
X189785714Y-66847619D01*
X189833333Y-66942857D01*
X189833333Y-67085714D01*
X189785714Y-67180952D01*
X189738095Y-67228571D01*
X189642857Y-67276190D01*
X189261904Y-67276190D01*
X190785714Y-67752380D02*
X190214285Y-67752380D01*
X190500000Y-67752380D02*
X190500000Y-66752380D01*
X190404761Y-66895238D01*
X190309523Y-66990476D01*
X190214285Y-67038095D01*
%TO.C,C3*%
X230178221Y-113607142D02*
X230130602Y-113654761D01*
X229987745Y-113702380D01*
X229892507Y-113702380D01*
X229749649Y-113654761D01*
X229654411Y-113559523D01*
X229606792Y-113464285D01*
X229559173Y-113273809D01*
X229559173Y-113130952D01*
X229606792Y-112940476D01*
X229654411Y-112845238D01*
X229749649Y-112750000D01*
X229892507Y-112702380D01*
X229987745Y-112702380D01*
X230130602Y-112750000D01*
X230178221Y-112797619D01*
X230511554Y-112702380D02*
X231130602Y-112702380D01*
X230797268Y-113083333D01*
X230940126Y-113083333D01*
X231035364Y-113130952D01*
X231082983Y-113178571D01*
X231130602Y-113273809D01*
X231130602Y-113511904D01*
X231082983Y-113607142D01*
X231035364Y-113654761D01*
X230940126Y-113702380D01*
X230654411Y-113702380D01*
X230559173Y-113654761D01*
X230511554Y-113607142D01*
%TO.C,AE1*%
X240233333Y-122116666D02*
X240709523Y-122116666D01*
X240138095Y-122402380D02*
X240471428Y-121402380D01*
X240804761Y-122402380D01*
X241138095Y-121878571D02*
X241471428Y-121878571D01*
X241614285Y-122402380D02*
X241138095Y-122402380D01*
X241138095Y-121402380D01*
X241614285Y-121402380D01*
X242566666Y-122402380D02*
X241995238Y-122402380D01*
X242280952Y-122402380D02*
X242280952Y-121402380D01*
X242185714Y-121545238D01*
X242090476Y-121640476D01*
X241995238Y-121688095D01*
%TO.C,C4*%
X223978221Y-111574819D02*
X223930602Y-111622438D01*
X223787745Y-111670057D01*
X223692507Y-111670057D01*
X223549649Y-111622438D01*
X223454411Y-111527200D01*
X223406792Y-111431962D01*
X223359173Y-111241486D01*
X223359173Y-111098629D01*
X223406792Y-110908153D01*
X223454411Y-110812915D01*
X223549649Y-110717677D01*
X223692507Y-110670057D01*
X223787745Y-110670057D01*
X223930602Y-110717677D01*
X223978221Y-110765296D01*
X224835364Y-111003391D02*
X224835364Y-111670057D01*
X224597268Y-110622438D02*
X224359173Y-111336724D01*
X224978221Y-111336724D01*
%TO.C,SW1*%
X184566666Y-118804761D02*
X184709523Y-118852380D01*
X184947619Y-118852380D01*
X185042857Y-118804761D01*
X185090476Y-118757142D01*
X185138095Y-118661904D01*
X185138095Y-118566666D01*
X185090476Y-118471428D01*
X185042857Y-118423809D01*
X184947619Y-118376190D01*
X184757142Y-118328571D01*
X184661904Y-118280952D01*
X184614285Y-118233333D01*
X184566666Y-118138095D01*
X184566666Y-118042857D01*
X184614285Y-117947619D01*
X184661904Y-117900000D01*
X184757142Y-117852380D01*
X184995238Y-117852380D01*
X185138095Y-117900000D01*
X185471428Y-117852380D02*
X185709523Y-118852380D01*
X185900000Y-118138095D01*
X186090476Y-118852380D01*
X186328571Y-117852380D01*
X187233333Y-118852380D02*
X186661904Y-118852380D01*
X186947619Y-118852380D02*
X186947619Y-117852380D01*
X186852380Y-117995238D01*
X186757142Y-118090476D01*
X186661904Y-118138095D01*
%TO.C,C2*%
X226933333Y-129757142D02*
X226885714Y-129804761D01*
X226742857Y-129852380D01*
X226647619Y-129852380D01*
X226504761Y-129804761D01*
X226409523Y-129709523D01*
X226361904Y-129614285D01*
X226314285Y-129423809D01*
X226314285Y-129280952D01*
X226361904Y-129090476D01*
X226409523Y-128995238D01*
X226504761Y-128900000D01*
X226647619Y-128852380D01*
X226742857Y-128852380D01*
X226885714Y-128900000D01*
X226933333Y-128947619D01*
X227314285Y-128947619D02*
X227361904Y-128900000D01*
X227457142Y-128852380D01*
X227695238Y-128852380D01*
X227790476Y-128900000D01*
X227838095Y-128947619D01*
X227885714Y-129042857D01*
X227885714Y-129138095D01*
X227838095Y-129280952D01*
X227266666Y-129852380D01*
X227885714Y-129852380D01*
%TO.C,J3*%
X240866666Y-94352380D02*
X240866666Y-95066666D01*
X240819047Y-95209523D01*
X240723809Y-95304761D01*
X240580952Y-95352380D01*
X240485714Y-95352380D01*
X241247619Y-94352380D02*
X241866666Y-94352380D01*
X241533333Y-94733333D01*
X241676190Y-94733333D01*
X241771428Y-94780952D01*
X241819047Y-94828571D01*
X241866666Y-94923809D01*
X241866666Y-95161904D01*
X241819047Y-95257142D01*
X241771428Y-95304761D01*
X241676190Y-95352380D01*
X241390476Y-95352380D01*
X241295238Y-95304761D01*
X241247619Y-95257142D01*
%TO.C,S1*%
X232438095Y-103404761D02*
X232580952Y-103452380D01*
X232819047Y-103452380D01*
X232914285Y-103404761D01*
X232961904Y-103357142D01*
X233009523Y-103261904D01*
X233009523Y-103166666D01*
X232961904Y-103071428D01*
X232914285Y-103023809D01*
X232819047Y-102976190D01*
X232628571Y-102928571D01*
X232533333Y-102880952D01*
X232485714Y-102833333D01*
X232438095Y-102738095D01*
X232438095Y-102642857D01*
X232485714Y-102547619D01*
X232533333Y-102500000D01*
X232628571Y-102452380D01*
X232866666Y-102452380D01*
X233009523Y-102500000D01*
X233961904Y-103452380D02*
X233390476Y-103452380D01*
X233676190Y-103452380D02*
X233676190Y-102452380D01*
X233580952Y-102595238D01*
X233485714Y-102690476D01*
X233390476Y-102738095D01*
%TO.C,M1*%
X224890476Y-78247380D02*
X224890476Y-77247380D01*
X225223809Y-77961666D01*
X225557142Y-77247380D01*
X225557142Y-78247380D01*
X226557142Y-78247380D02*
X225985714Y-78247380D01*
X226271428Y-78247380D02*
X226271428Y-77247380D01*
X226176190Y-77390238D01*
X226080952Y-77485476D01*
X225985714Y-77533095D01*
%TO.C,U1*%
X192338095Y-54752380D02*
X192338095Y-55561904D01*
X192385714Y-55657142D01*
X192433333Y-55704761D01*
X192528571Y-55752380D01*
X192719047Y-55752380D01*
X192814285Y-55704761D01*
X192861904Y-55657142D01*
X192909523Y-55561904D01*
X192909523Y-54752380D01*
X193909523Y-55752380D02*
X193338095Y-55752380D01*
X193623809Y-55752380D02*
X193623809Y-54752380D01*
X193528571Y-54895238D01*
X193433333Y-54990476D01*
X193338095Y-55038095D01*
%TO.C,SW2*%
X217666666Y-56004761D02*
X217809523Y-56052380D01*
X218047619Y-56052380D01*
X218142857Y-56004761D01*
X218190476Y-55957142D01*
X218238095Y-55861904D01*
X218238095Y-55766666D01*
X218190476Y-55671428D01*
X218142857Y-55623809D01*
X218047619Y-55576190D01*
X217857142Y-55528571D01*
X217761904Y-55480952D01*
X217714285Y-55433333D01*
X217666666Y-55338095D01*
X217666666Y-55242857D01*
X217714285Y-55147619D01*
X217761904Y-55100000D01*
X217857142Y-55052380D01*
X218095238Y-55052380D01*
X218238095Y-55100000D01*
X218571428Y-55052380D02*
X218809523Y-56052380D01*
X219000000Y-55338095D01*
X219190476Y-56052380D01*
X219428571Y-55052380D01*
X219761904Y-55147619D02*
X219809523Y-55100000D01*
X219904761Y-55052380D01*
X220142857Y-55052380D01*
X220238095Y-55100000D01*
X220285714Y-55147619D01*
X220333333Y-55242857D01*
X220333333Y-55338095D01*
X220285714Y-55480952D01*
X219714285Y-56052380D01*
X220333333Y-56052380D01*
%TO.C,U3*%
X201538095Y-87852380D02*
X201538095Y-88661904D01*
X201585714Y-88757142D01*
X201633333Y-88804761D01*
X201728571Y-88852380D01*
X201919047Y-88852380D01*
X202014285Y-88804761D01*
X202061904Y-88757142D01*
X202109523Y-88661904D01*
X202109523Y-87852380D01*
X202490476Y-87852380D02*
X203109523Y-87852380D01*
X202776190Y-88233333D01*
X202919047Y-88233333D01*
X203014285Y-88280952D01*
X203061904Y-88328571D01*
X203109523Y-88423809D01*
X203109523Y-88661904D01*
X203061904Y-88757142D01*
X203014285Y-88804761D01*
X202919047Y-88852380D01*
X202633333Y-88852380D01*
X202538095Y-88804761D01*
X202490476Y-88757142D01*
%TO.C,C1*%
X186233333Y-74857142D02*
X186185714Y-74904761D01*
X186042857Y-74952380D01*
X185947619Y-74952380D01*
X185804761Y-74904761D01*
X185709523Y-74809523D01*
X185661904Y-74714285D01*
X185614285Y-74523809D01*
X185614285Y-74380952D01*
X185661904Y-74190476D01*
X185709523Y-74095238D01*
X185804761Y-74000000D01*
X185947619Y-73952380D01*
X186042857Y-73952380D01*
X186185714Y-74000000D01*
X186233333Y-74047619D01*
X187185714Y-74952380D02*
X186614285Y-74952380D01*
X186900000Y-74952380D02*
X186900000Y-73952380D01*
X186804761Y-74095238D01*
X186709523Y-74190476D01*
X186614285Y-74238095D01*
%TO.C,J1*%
X222014285Y-40752380D02*
X222014285Y-39752380D01*
X222395238Y-39752380D01*
X222490476Y-39800000D01*
X222538095Y-39847619D01*
X222585714Y-39942857D01*
X222585714Y-40085714D01*
X222538095Y-40180952D01*
X222490476Y-40228571D01*
X222395238Y-40276190D01*
X222014285Y-40276190D01*
X223585714Y-40752380D02*
X223252380Y-40276190D01*
X223014285Y-40752380D02*
X223014285Y-39752380D01*
X223395238Y-39752380D01*
X223490476Y-39800000D01*
X223538095Y-39847619D01*
X223585714Y-39942857D01*
X223585714Y-40085714D01*
X223538095Y-40180952D01*
X223490476Y-40228571D01*
X223395238Y-40276190D01*
X223014285Y-40276190D01*
X224204761Y-39752380D02*
X224395238Y-39752380D01*
X224490476Y-39800000D01*
X224585714Y-39895238D01*
X224633333Y-40085714D01*
X224633333Y-40419047D01*
X224585714Y-40609523D01*
X224490476Y-40704761D01*
X224395238Y-40752380D01*
X224204761Y-40752380D01*
X224109523Y-40704761D01*
X224014285Y-40609523D01*
X223966666Y-40419047D01*
X223966666Y-40085714D01*
X224014285Y-39895238D01*
X224109523Y-39800000D01*
X224204761Y-39752380D01*
X225585714Y-39800000D02*
X225490476Y-39752380D01*
X225347619Y-39752380D01*
X225204761Y-39800000D01*
X225109523Y-39895238D01*
X225061904Y-39990476D01*
X225014285Y-40180952D01*
X225014285Y-40323809D01*
X225061904Y-40514285D01*
X225109523Y-40609523D01*
X225204761Y-40704761D01*
X225347619Y-40752380D01*
X225442857Y-40752380D01*
X225585714Y-40704761D01*
X225633333Y-40657142D01*
X225633333Y-40323809D01*
X225442857Y-40323809D01*
D13*
%TO.C,BT1*%
X180695000Y-43014000D02*
X159975000Y-43014000D01*
X159975000Y-43014000D02*
X159975000Y-119214000D01*
X159975000Y-119214000D02*
X180695000Y-119214000D01*
X180695000Y-119214000D02*
X180695000Y-43014000D01*
%TO.C,U2*%
X216505000Y-131355000D02*
X191305000Y-131355000D01*
X191305000Y-131355000D02*
X191305000Y-108055000D01*
X191305000Y-108055000D02*
X216505000Y-108055000D01*
X216505000Y-108055000D02*
X216505000Y-131355000D01*
%TO.C,D1*%
X185370000Y-86560000D02*
X182430000Y-86560000D01*
X183900000Y-92440000D02*
X183900000Y-91220000D01*
X185370000Y-86800000D02*
X182430000Y-86800000D01*
X185370000Y-85780000D02*
X182430000Y-85780000D01*
X185370000Y-86680000D02*
X182430000Y-86680000D01*
X183900000Y-84560000D02*
X183900000Y-85780000D01*
X185370000Y-91220000D02*
X185370000Y-85780000D01*
X182430000Y-85780000D02*
X182430000Y-91220000D01*
X182430000Y-91220000D02*
X185370000Y-91220000D01*
%TO.C,F1*%
X184300000Y-98720000D02*
X184300000Y-99830000D01*
X184300000Y-111080000D02*
X184300000Y-109970000D01*
X182380000Y-99830000D02*
X182380000Y-109970000D01*
X182380000Y-109970000D02*
X186220000Y-109970000D01*
X186220000Y-109970000D02*
X186220000Y-99830000D01*
X186220000Y-99830000D02*
X182380000Y-99830000D01*
%TO.C,R1*%
X193840000Y-64900000D02*
X193070000Y-64900000D01*
X193070000Y-63530000D02*
X186530000Y-63530000D01*
X193070000Y-66270000D02*
X193070000Y-63530000D01*
X185760000Y-64900000D02*
X186530000Y-64900000D01*
X186530000Y-63530000D02*
X186530000Y-66270000D01*
X186530000Y-66270000D02*
X193070000Y-66270000D01*
%TO.C,C3*%
X227540113Y-115525000D02*
X228040113Y-115525000D01*
X227790113Y-115275000D02*
X227790113Y-115775000D01*
X232964888Y-117000000D02*
G75*
G03*
X232964888Y-117000000I-2620000J0D01*
G01*
%TO.C,AE1*%
X237790000Y-125040000D02*
X237790000Y-128360000D01*
X239740000Y-130310000D02*
X243060000Y-130310000D01*
X239740000Y-123090000D02*
X243060000Y-123090000D01*
X245010000Y-125040000D02*
X245010000Y-128360000D01*
%TO.C,C4*%
X221590113Y-113242677D02*
X221590113Y-113742677D01*
X221340113Y-113492677D02*
X221840113Y-113492677D01*
X226764888Y-114967677D02*
G75*
G03*
X226764888Y-114967677I-2620000J0D01*
G01*
%TO.C,SW1*%
X171845000Y-119980000D02*
X190145000Y-119980000D01*
X190145000Y-119980000D02*
X190145000Y-131380000D01*
X190145000Y-131380000D02*
X171845000Y-131380000D01*
X171845000Y-131380000D02*
X171845000Y-119980000D01*
%TO.C,C2*%
X225341000Y-120926677D02*
X228180000Y-120926677D01*
X219215000Y-122566677D02*
X222859000Y-122566677D01*
X219250000Y-122446677D02*
X222859000Y-122446677D01*
X219906000Y-121086677D02*
X222859000Y-121086677D01*
X219346000Y-122166677D02*
X222859000Y-122166677D01*
X219555000Y-121686677D02*
X222859000Y-121686677D01*
X225341000Y-122206677D02*
X228868000Y-122206677D01*
X219575000Y-121646677D02*
X222859000Y-121646677D01*
X220664000Y-120206677D02*
X227536000Y-120206677D01*
X219705000Y-121406677D02*
X222859000Y-121406677D01*
X219126000Y-122926677D02*
X229074000Y-122926677D01*
X225341000Y-120886677D02*
X228150000Y-120886677D01*
X219046000Y-123447677D02*
X229154000Y-123447677D01*
X225341000Y-122526677D02*
X228974000Y-122526677D01*
X221046000Y-119886677D02*
X227154000Y-119886677D01*
X222156000Y-119246677D02*
X226044000Y-119246677D01*
X219065000Y-123287677D02*
X229135000Y-123287677D01*
X225341000Y-122486677D02*
X228962000Y-122486677D01*
X221661000Y-119486677D02*
X226539000Y-119486677D01*
X219362000Y-122126677D02*
X222859000Y-122126677D01*
X225341000Y-122606677D02*
X228997000Y-122606677D01*
X220347000Y-120526677D02*
X222859000Y-120526677D01*
X219596000Y-121606677D02*
X222859000Y-121606677D01*
X219962000Y-121006677D02*
X222859000Y-121006677D01*
X219753000Y-121326677D02*
X222859000Y-121326677D01*
X220050000Y-120886677D02*
X222859000Y-120886677D01*
X225341000Y-121006677D02*
X228238000Y-121006677D01*
X225341000Y-120366677D02*
X227701000Y-120366677D01*
X225341000Y-122406677D02*
X228937000Y-122406677D01*
X219038000Y-123527677D02*
X229162000Y-123527677D01*
X222470000Y-119126677D02*
X225730000Y-119126677D01*
X219802000Y-121246677D02*
X222859000Y-121246677D01*
X219777000Y-121286677D02*
X222859000Y-121286677D01*
X219032000Y-123607677D02*
X229168000Y-123607677D01*
X225341000Y-120966677D02*
X228210000Y-120966677D01*
X221590000Y-119526677D02*
X226610000Y-119526677D01*
X225341000Y-122166677D02*
X228854000Y-122166677D01*
X219172000Y-122726677D02*
X229028000Y-122726677D01*
X225341000Y-120806677D02*
X228089000Y-120806677D01*
X219025000Y-123727677D02*
X229175000Y-123727677D01*
X219103000Y-123046677D02*
X229097000Y-123046677D01*
X225341000Y-122086677D02*
X228823000Y-122086677D01*
X219035000Y-123567677D02*
X229165000Y-123567677D01*
X225341000Y-120686677D02*
X227992000Y-120686677D01*
X225341000Y-120526677D02*
X227853000Y-120526677D01*
X225341000Y-122006677D02*
X228790000Y-122006677D01*
X220499000Y-120366677D02*
X222859000Y-120366677D01*
X219027000Y-123687677D02*
X229173000Y-123687677D01*
X221100000Y-119846677D02*
X227100000Y-119846677D01*
X219276000Y-122366677D02*
X222859000Y-122366677D01*
X220994000Y-119926677D02*
X227206000Y-119926677D01*
X219263000Y-122406677D02*
X222859000Y-122406677D01*
X225341000Y-120326677D02*
X227661000Y-120326677D01*
X220708000Y-120166677D02*
X227492000Y-120166677D01*
X219070000Y-123246677D02*
X229130000Y-123246677D01*
X220175000Y-120726677D02*
X222859000Y-120726677D01*
X225341000Y-121326677D02*
X228447000Y-121326677D01*
X219426000Y-121966677D02*
X222859000Y-121966677D01*
X225341000Y-120566677D02*
X227889000Y-120566677D01*
X219660000Y-121486677D02*
X222859000Y-121486677D01*
X219377000Y-122086677D02*
X222859000Y-122086677D01*
X219020000Y-123927677D02*
X229180000Y-123927677D01*
X221225000Y-129447323D02*
X221225000Y-128447323D01*
X219182000Y-122686677D02*
X222859000Y-122686677D01*
X220622000Y-120246677D02*
X222859000Y-120246677D01*
X220421000Y-120446677D02*
X222859000Y-120446677D01*
X220753000Y-120126677D02*
X227447000Y-120126677D01*
X225341000Y-121086677D02*
X228294000Y-121086677D01*
X219853000Y-121166677D02*
X222859000Y-121166677D01*
X222722000Y-119046677D02*
X225478000Y-119046677D01*
X225341000Y-120406677D02*
X227740000Y-120406677D01*
X221891000Y-119366677D02*
X226309000Y-119366677D01*
X225341000Y-120606677D02*
X227924000Y-120606677D01*
X225341000Y-121886677D02*
X228739000Y-121886677D01*
X219030000Y-123647677D02*
X229170000Y-123647677D01*
X219536000Y-121726677D02*
X222859000Y-121726677D01*
X225341000Y-120846677D02*
X228120000Y-120846677D01*
X219135000Y-122886677D02*
X229065000Y-122886677D01*
X219226000Y-122526677D02*
X222859000Y-122526677D01*
X219162000Y-122766677D02*
X229038000Y-122766677D01*
X219934000Y-121046677D02*
X222859000Y-121046677D01*
X220580000Y-120286677D02*
X222859000Y-120286677D01*
X225341000Y-121286677D02*
X228423000Y-121286677D01*
X221391000Y-119646677D02*
X226809000Y-119646677D01*
X219638000Y-121526677D02*
X222859000Y-121526677D01*
X225341000Y-121366677D02*
X228471000Y-121366677D01*
X225341000Y-121806677D02*
X228703000Y-121806677D01*
X225341000Y-121606677D02*
X228604000Y-121606677D01*
X220276000Y-120606677D02*
X222859000Y-120606677D01*
X222870000Y-119006677D02*
X225330000Y-119006677D01*
X225341000Y-120446677D02*
X227779000Y-120446677D01*
X225341000Y-122246677D02*
X228883000Y-122246677D01*
X219110000Y-123006677D02*
X229090000Y-123006677D01*
X225341000Y-121526677D02*
X228562000Y-121526677D01*
X219144000Y-122846677D02*
X229056000Y-122846677D01*
X219497000Y-121806677D02*
X222859000Y-121806677D01*
X225341000Y-121406677D02*
X228495000Y-121406677D01*
X219020000Y-123887677D02*
X229180000Y-123887677D01*
X219990000Y-120966677D02*
X222859000Y-120966677D01*
X219153000Y-122806677D02*
X229047000Y-122806677D01*
X222254000Y-119206677D02*
X225946000Y-119206677D01*
X219303000Y-122286677D02*
X222859000Y-122286677D01*
X225341000Y-122686677D02*
X229018000Y-122686677D01*
X223038000Y-118966677D02*
X225162000Y-118966677D01*
X225341000Y-121046677D02*
X228266000Y-121046677D01*
X225341000Y-122446677D02*
X228950000Y-122446677D01*
X225341000Y-121446677D02*
X228517000Y-121446677D01*
X219193000Y-122646677D02*
X222859000Y-122646677D01*
X220460000Y-120406677D02*
X222859000Y-120406677D01*
X225341000Y-121126677D02*
X228321000Y-121126677D01*
X225341000Y-121846677D02*
X228721000Y-121846677D01*
X219410000Y-122006677D02*
X222859000Y-122006677D01*
X225341000Y-120286677D02*
X227620000Y-120286677D01*
X219042000Y-123487677D02*
X229158000Y-123487677D01*
X225341000Y-122286677D02*
X228897000Y-122286677D01*
X220539000Y-120326677D02*
X222859000Y-120326677D01*
X221455000Y-119606677D02*
X226745000Y-119606677D01*
X220242000Y-120646677D02*
X222859000Y-120646677D01*
X220208000Y-120686677D02*
X222859000Y-120686677D01*
X225341000Y-122646677D02*
X229007000Y-122646677D01*
X223238000Y-118926677D02*
X224962000Y-118926677D01*
X219289000Y-122326677D02*
X222859000Y-122326677D01*
X225341000Y-122326677D02*
X228911000Y-122326677D01*
X219729000Y-121366677D02*
X222859000Y-121366677D01*
X225341000Y-120246677D02*
X227578000Y-120246677D01*
X220384000Y-120486677D02*
X222859000Y-120486677D01*
X225341000Y-121246677D02*
X228398000Y-121246677D01*
X220846000Y-120046677D02*
X227354000Y-120046677D01*
X225341000Y-121646677D02*
X228625000Y-121646677D01*
X219076000Y-123206677D02*
X229124000Y-123206677D01*
X219393000Y-122046677D02*
X222859000Y-122046677D01*
X225341000Y-121566677D02*
X228583000Y-121566677D01*
X225341000Y-120486677D02*
X227816000Y-120486677D01*
X219060000Y-123327677D02*
X229140000Y-123327677D01*
X225341000Y-121486677D02*
X228540000Y-121486677D01*
X219317000Y-122246677D02*
X222859000Y-122246677D01*
X219022000Y-123807677D02*
X229178000Y-123807677D01*
X219617000Y-121566677D02*
X222859000Y-121566677D01*
X219827000Y-121206677D02*
X222859000Y-121206677D01*
X221155000Y-119806677D02*
X227045000Y-119806677D01*
X219203000Y-122606677D02*
X222859000Y-122606677D01*
X225341000Y-121926677D02*
X228757000Y-121926677D01*
X219021000Y-123847677D02*
X229179000Y-123847677D01*
X220725000Y-128947323D02*
X221725000Y-128947323D01*
X221735000Y-119446677D02*
X226465000Y-119446677D01*
X220311000Y-120566677D02*
X222859000Y-120566677D01*
X219443000Y-121926677D02*
X222859000Y-121926677D01*
X219023000Y-123767677D02*
X229177000Y-123767677D01*
X222358000Y-119166677D02*
X225842000Y-119166677D01*
X225341000Y-121166677D02*
X228347000Y-121166677D01*
X225341000Y-120726677D02*
X228025000Y-120726677D01*
X219683000Y-121446677D02*
X222859000Y-121446677D01*
X225341000Y-120766677D02*
X228057000Y-120766677D01*
X225341000Y-121966677D02*
X228774000Y-121966677D01*
X219332000Y-122206677D02*
X222859000Y-122206677D01*
X219055000Y-123367677D02*
X229145000Y-123367677D01*
X219479000Y-121846677D02*
X222859000Y-121846677D01*
X219082000Y-123166677D02*
X229118000Y-123166677D01*
X219050000Y-123407677D02*
X229150000Y-123407677D01*
X220020000Y-120926677D02*
X222859000Y-120926677D01*
X225341000Y-122366677D02*
X228924000Y-122366677D01*
X221975000Y-119326677D02*
X226225000Y-119326677D01*
X220111000Y-120806677D02*
X222859000Y-120806677D01*
X219118000Y-122966677D02*
X229082000Y-122966677D01*
X220080000Y-120846677D02*
X222859000Y-120846677D01*
X225341000Y-122046677D02*
X228807000Y-122046677D01*
X221811000Y-119406677D02*
X226389000Y-119406677D01*
X220894000Y-120006677D02*
X227306000Y-120006677D01*
X225341000Y-122126677D02*
X228838000Y-122126677D01*
X225341000Y-121206677D02*
X228373000Y-121206677D01*
X220143000Y-120766677D02*
X222859000Y-120766677D01*
X221330000Y-119686677D02*
X226870000Y-119686677D01*
X219238000Y-122486677D02*
X222859000Y-122486677D01*
X225341000Y-121686677D02*
X228645000Y-121686677D01*
X219089000Y-123126677D02*
X229111000Y-123126677D01*
X219516000Y-121766677D02*
X222859000Y-121766677D01*
X225341000Y-121726677D02*
X228664000Y-121726677D01*
X219096000Y-123086677D02*
X229104000Y-123086677D01*
X225341000Y-122566677D02*
X228985000Y-122566677D01*
X219461000Y-121886677D02*
X222859000Y-121886677D01*
X222590000Y-119086677D02*
X225610000Y-119086677D01*
X221521000Y-119566677D02*
X226679000Y-119566677D01*
X222063000Y-119286677D02*
X226137000Y-119286677D01*
X219020000Y-123967677D02*
X229180000Y-123967677D01*
X223501000Y-118886677D02*
X224699000Y-118886677D01*
X221270000Y-119726677D02*
X226930000Y-119726677D01*
X225341000Y-120646677D02*
X227958000Y-120646677D01*
X220799000Y-120086677D02*
X227401000Y-120086677D01*
X220944000Y-119966677D02*
X227256000Y-119966677D01*
X221211000Y-119766677D02*
X226989000Y-119766677D01*
X225341000Y-121766677D02*
X228684000Y-121766677D01*
X219879000Y-121126677D02*
X222859000Y-121126677D01*
X229220000Y-123967677D02*
G75*
G03*
X229220000Y-123967677I-5120000J0D01*
G01*
%TO.C,J3*%
X238245000Y-93845000D02*
X244545000Y-93845000D01*
X244545000Y-93845000D02*
X244545000Y-62965000D01*
X244545000Y-62965000D02*
X238245000Y-62965000D01*
X238245000Y-62965000D02*
X238245000Y-93845000D01*
%TO.C,S1*%
X217245000Y-96195000D02*
X248545000Y-96195000D01*
X248545000Y-96195000D02*
X248545000Y-110195000D01*
X248545000Y-110195000D02*
X217245000Y-110195000D01*
X217245000Y-110195000D02*
X217245000Y-96195000D01*
%TO.C,M1*%
X215545000Y-94305000D02*
X236545000Y-94305000D01*
X236545000Y-94305000D02*
X236545000Y-60305000D01*
X236545000Y-60305000D02*
X215545000Y-60305000D01*
X215545000Y-60305000D02*
X215545000Y-94305000D01*
%TO.C,U1*%
X202520000Y-60000000D02*
X202520000Y-60780000D01*
X184280000Y-41455000D02*
X183900000Y-41455000D01*
X202520000Y-60780000D02*
X201520000Y-60780000D01*
X202520000Y-35040000D02*
X202520000Y-41455000D01*
X184280000Y-60780000D02*
X185280000Y-60780000D01*
X184280000Y-35040000D02*
X184280000Y-41455000D01*
X184280000Y-35040000D02*
X202520000Y-35040000D01*
X184280000Y-60000000D02*
X184280000Y-60780000D01*
%TO.C,SW2*%
X216045000Y-48400000D02*
X222145000Y-48400000D01*
X222145000Y-48400000D02*
X222145000Y-54500000D01*
X222145000Y-54500000D02*
X216045000Y-54500000D01*
X216045000Y-54500000D02*
X216045000Y-48400000D01*
%TO.C,U3*%
X212505000Y-69020000D02*
X190905000Y-69020000D01*
X190905000Y-69020000D02*
X190905000Y-107170000D01*
X190905000Y-107170000D02*
X212505000Y-107170000D01*
X212505000Y-107170000D02*
X212505000Y-69020000D01*
%TO.C,C1*%
X188709887Y-72525000D02*
X188709887Y-72025000D01*
X188959887Y-72275000D02*
X188459887Y-72275000D01*
X188775112Y-70800000D02*
G75*
G03*
X188775112Y-70800000I-2620000J0D01*
G01*
%TD*%
M02*
