%TF.GenerationSoftware,KiCad,Pcbnew,(6.0.9)*%
%TF.CreationDate,2023-05-03T02:02:48+02:00*%
%TF.ProjectId,esp-merged_v2,6573702d-6d65-4726-9765-645f76322e6b,rev?*%
%TF.SameCoordinates,Original*%
%TF.FileFunction,Copper,L1,Top*%
%TF.FilePolarity,Positive*%
%FSLAX46Y46*%
G04 Gerber Fmt 4.6, Leading zero omitted, Abs format (unit mm)*
G04 Created by KiCad (PCBNEW (6.0.9)) date 2023-05-03 02:02:48*
%MOMM*%
%LPD*%
G01*
G04 APERTURE LIST*
%TA.AperFunction,ComponentPad*%
%ADD10C,1.524000*%
%TD*%
%TA.AperFunction,ComponentPad*%
%ADD11R,1.800000X1.800000*%
%TD*%
%TA.AperFunction,ComponentPad*%
%ADD12O,1.800000X1.800000*%
%TD*%
%TA.AperFunction,ComponentPad*%
%ADD13C,2.400000*%
%TD*%
%TA.AperFunction,ComponentPad*%
%ADD14O,2.400000X2.400000*%
%TD*%
%TA.AperFunction,ComponentPad*%
%ADD15C,1.600000*%
%TD*%
%TA.AperFunction,ComponentPad*%
%ADD16O,1.600000X1.600000*%
%TD*%
%TA.AperFunction,ComponentPad*%
%ADD17R,1.600000X1.600000*%
%TD*%
%TA.AperFunction,ComponentPad*%
%ADD18C,2.050000*%
%TD*%
%TA.AperFunction,ComponentPad*%
%ADD19C,2.250000*%
%TD*%
%TA.AperFunction,ComponentPad*%
%ADD20O,1.524000X5.332000*%
%TD*%
%TA.AperFunction,ComponentPad*%
%ADD21R,2.000000X2.000000*%
%TD*%
%TA.AperFunction,ComponentPad*%
%ADD22C,2.000000*%
%TD*%
%TA.AperFunction,ComponentPad*%
%ADD23C,1.300000*%
%TD*%
%TA.AperFunction,SMDPad,CuDef*%
%ADD24R,1.500000X0.900000*%
%TD*%
%TA.AperFunction,SMDPad,CuDef*%
%ADD25R,0.900000X1.500000*%
%TD*%
%TA.AperFunction,ComponentPad*%
%ADD26C,0.762000*%
%TD*%
%TA.AperFunction,SMDPad,CuDef*%
%ADD27R,4.200000X4.200000*%
%TD*%
%TA.AperFunction,ViaPad*%
%ADD28C,0.750000*%
%TD*%
%TA.AperFunction,Conductor*%
%ADD29C,0.400000*%
%TD*%
%TA.AperFunction,Conductor*%
%ADD30C,0.200000*%
%TD*%
G04 APERTURE END LIST*
D10*
%TO.P,BT1,1,+*%
%TO.N,Net-(BT1-Pad1)*%
X170535000Y-121754000D03*
%TO.P,BT1,2,-*%
%TO.N,GND*%
X170535000Y-40474000D03*
%TD*%
%TO.P,U2,0,GND*%
%TO.N,GND*%
X215235000Y-114085000D03*
%TO.P,U2,1,TXD*%
%TO.N,/RX1*%
X215235000Y-116625000D03*
%TO.P,U2,2,RXD*%
%TO.N,/TX1*%
X215235000Y-119165000D03*
%TO.P,U2,3,RST*%
%TO.N,unconnected-(U2-Pad3)*%
X215235000Y-121705000D03*
%TO.P,U2,4,VCC*%
%TO.N,/Battery VCC*%
X215235000Y-124245000D03*
%TO.P,U2,5,NET*%
%TO.N,Net-(AE1-Pad1)*%
X215235000Y-126785000D03*
%TO.P,U2,6,RING*%
%TO.N,unconnected-(U2-Pad6)*%
X192575000Y-124245000D03*
%TO.P,U2,7,DTR*%
%TO.N,unconnected-(U2-Pad7)*%
X192575000Y-121705000D03*
%TO.P,U2,8,MICP*%
%TO.N,unconnected-(U2-Pad8)*%
X192575000Y-119165000D03*
%TO.P,U2,9,MICN*%
%TO.N,unconnected-(U2-Pad9)*%
X192575000Y-116625000D03*
%TO.P,U2,10,SPKP*%
%TO.N,unconnected-(U2-Pad10)*%
X192575000Y-114085000D03*
%TO.P,U2,11,SPKN*%
%TO.N,unconnected-(U2-Pad11)*%
X192575000Y-111545000D03*
%TD*%
D11*
%TO.P,D1,1,A*%
%TO.N,/3.3 VCC*%
X183900000Y-83420000D03*
D12*
%TO.P,D1,2,K*%
%TO.N,/Battery VCC*%
X183900000Y-93580000D03*
%TD*%
D10*
%TO.P,J2,1,CD/DAT3*%
%TO.N,/CS*%
X241915000Y-50955000D03*
%TO.P,J2,2,CMD*%
%TO.N,/MOSI*%
X241915000Y-48415000D03*
%TO.P,J2,3,VSS*%
%TO.N,GND*%
X241915000Y-45875000D03*
%TO.P,J2,4,VDD*%
%TO.N,/3.3 VCC*%
X241915000Y-43335000D03*
%TO.P,J2,5,CLK*%
%TO.N,/CLK*%
X241915000Y-40795000D03*
%TO.P,J2,6,VSS*%
%TO.N,GND*%
X241915000Y-38255000D03*
%TO.P,J2,7,DAT0*%
%TO.N,/MISO*%
X241915000Y-35715000D03*
%TD*%
D13*
%TO.P,F1,1*%
%TO.N,Net-(F1-Pad1)*%
X184300000Y-112520000D03*
D14*
%TO.P,F1,2*%
%TO.N,/Battery VCC*%
X184300000Y-97280000D03*
%TD*%
D15*
%TO.P,R1,1*%
%TO.N,/3.3 VCC*%
X194880000Y-64900000D03*
D16*
%TO.P,R1,2*%
%TO.N,/PROG_EN*%
X184720000Y-64900000D03*
%TD*%
D17*
%TO.P,C3,1*%
%TO.N,/Battery VCC*%
X229094888Y-117000000D03*
D15*
%TO.P,C3,2*%
%TO.N,GND*%
X231594888Y-117000000D03*
%TD*%
D18*
%TO.P,AE1,1,A*%
%TO.N,Net-(AE1-Pad1)*%
X241400000Y-126700000D03*
D19*
%TO.P,AE1,2*%
%TO.N,N/C*%
X238860000Y-124160000D03*
X243940000Y-129240000D03*
X238860000Y-129240000D03*
X243940000Y-124160000D03*
%TD*%
D17*
%TO.P,C4,1*%
%TO.N,/Battery VCC*%
X222894888Y-114967677D03*
D15*
%TO.P,C4,2*%
%TO.N,GND*%
X225394888Y-114967677D03*
%TD*%
D20*
%TO.P,SW1,1,1*%
%TO.N,Net-(BT1-Pad1)*%
X174639000Y-125568000D03*
%TO.P,SW1,2,2*%
%TO.N,Net-(F1-Pad1)*%
X181497000Y-125568000D03*
%TD*%
D21*
%TO.P,C2,1*%
%TO.N,/Battery VCC*%
X224100000Y-126467677D03*
D22*
%TO.P,C2,2*%
%TO.N,GND*%
X224100000Y-121467677D03*
%TD*%
D23*
%TO.P,J3,1,Pin_1*%
%TO.N,Net-(J3-Pad1)*%
X241245000Y-92495000D03*
%TO.P,J3,2,Pin_2*%
%TO.N,/A- R*%
X241245000Y-89955000D03*
%TO.P,J3,3,Pin_3*%
%TO.N,Net-(J3-Pad12)*%
X241245000Y-87415000D03*
%TO.P,J3,4,Pin_4*%
%TO.N,Net-(J3-Pad1)*%
X241245000Y-84875000D03*
%TO.P,J3,5,Pin_5*%
%TO.N,/E+ R*%
X241245000Y-82335000D03*
%TO.P,J3,6,Pin_6*%
%TO.N,Net-(J3-Pad6)*%
X241245000Y-79795000D03*
%TO.P,J3,7,Pin_7*%
%TO.N,Net-(J3-Pad10)*%
X241245000Y-77255000D03*
%TO.P,J3,8,Pin_8*%
%TO.N,/A+ R*%
X241245000Y-74715000D03*
%TO.P,J3,9,Pin_9*%
%TO.N,Net-(J3-Pad6)*%
X241245000Y-72175000D03*
%TO.P,J3,10,Pin_10*%
%TO.N,Net-(J3-Pad10)*%
X241245000Y-69635000D03*
%TO.P,J3,11,Pin_11*%
%TO.N,/E- R*%
X241245000Y-67095000D03*
%TO.P,J3,12,Pin_12*%
%TO.N,Net-(J3-Pad12)*%
X241245000Y-64555000D03*
%TD*%
D10*
%TO.P,S1,0,Vcc*%
%TO.N,/3.3 VCC*%
X219245000Y-106815000D03*
%TO.P,S1,1,GND*%
%TO.N,GND*%
X219245000Y-104275000D03*
%TO.P,S1,2,DO*%
%TO.N,/wstrzas D*%
X219245000Y-101735000D03*
%TO.P,S1,3,AO*%
%TO.N,/wstrzas A*%
X219245000Y-99195000D03*
%TD*%
%TO.P,M1,0,E+*%
%TO.N,/E+ R*%
X219445000Y-90705000D03*
%TO.P,M1,1,E-*%
%TO.N,/E- R*%
X221985000Y-90705000D03*
%TO.P,M1,2,A-*%
%TO.N,/A- R*%
X224525000Y-90705000D03*
%TO.P,M1,3,A+*%
%TO.N,/A+ R*%
X227065000Y-90705000D03*
%TO.P,M1,4,B-*%
%TO.N,unconnected-(M1-Pad4)*%
X229605000Y-90705000D03*
%TO.P,M1,5,B+*%
%TO.N,unconnected-(M1-Pad5)*%
X232145000Y-90705000D03*
%TO.P,M1,6,GND*%
%TO.N,GND*%
X221985000Y-65495000D03*
%TO.P,M1,7,DT*%
%TO.N,/HX Data*%
X224525000Y-65495000D03*
%TO.P,M1,8,SCK*%
%TO.N,/HX clk*%
X227065000Y-65495000D03*
%TO.P,M1,9,VCC*%
%TO.N,/3.3 VCC*%
X229605000Y-65495000D03*
%TD*%
D24*
%TO.P,U1,1,GND*%
%TO.N,GND*%
X184650000Y-42650000D03*
%TO.P,U1,2,VDD*%
%TO.N,/3.3 VCC*%
X184650000Y-43920000D03*
%TO.P,U1,3,EN*%
%TO.N,/PROG_EN*%
X184650000Y-45190000D03*
%TO.P,U1,4,SENSOR_VP*%
%TO.N,unconnected-(U1-Pad4)*%
X184650000Y-46460000D03*
%TO.P,U1,5,SENSOR_VN*%
%TO.N,unconnected-(U1-Pad5)*%
X184650000Y-47730000D03*
%TO.P,U1,6,IO34*%
%TO.N,unconnected-(U1-Pad6)*%
X184650000Y-49000000D03*
%TO.P,U1,7,IO35*%
%TO.N,unconnected-(U1-Pad7)*%
X184650000Y-50270000D03*
%TO.P,U1,8,IO32*%
%TO.N,/wstrzas A*%
X184650000Y-51540000D03*
%TO.P,U1,9,IO33*%
%TO.N,/wstrzas D*%
X184650000Y-52810000D03*
%TO.P,U1,10,IO25*%
%TO.N,/HX clk*%
X184650000Y-54080000D03*
%TO.P,U1,11,IO26*%
%TO.N,/HX Data*%
X184650000Y-55350000D03*
%TO.P,U1,12,IO27*%
%TO.N,unconnected-(U1-Pad12)*%
X184650000Y-56620000D03*
%TO.P,U1,13,IO14*%
%TO.N,unconnected-(U1-Pad13)*%
X184650000Y-57890000D03*
%TO.P,U1,14,IO12*%
%TO.N,unconnected-(U1-Pad14)*%
X184650000Y-59160000D03*
D25*
%TO.P,U1,15,GND*%
%TO.N,GND*%
X187690000Y-60410000D03*
%TO.P,U1,16,IO13*%
%TO.N,unconnected-(U1-Pad16)*%
X188960000Y-60410000D03*
%TO.P,U1,17,SHD/SD2*%
%TO.N,unconnected-(U1-Pad17)*%
X190230000Y-60410000D03*
%TO.P,U1,18,SWP/SD3*%
%TO.N,unconnected-(U1-Pad18)*%
X191500000Y-60410000D03*
%TO.P,U1,19,SCS/CMD*%
%TO.N,unconnected-(U1-Pad19)*%
X192770000Y-60410000D03*
%TO.P,U1,20,SCK/CLK*%
%TO.N,unconnected-(U1-Pad20)*%
X194040000Y-60410000D03*
%TO.P,U1,21,SDO/SD0*%
%TO.N,unconnected-(U1-Pad21)*%
X195310000Y-60410000D03*
%TO.P,U1,22,SDI/SD1*%
%TO.N,unconnected-(U1-Pad22)*%
X196580000Y-60410000D03*
%TO.P,U1,23,IO15*%
%TO.N,unconnected-(U1-Pad23)*%
X197850000Y-60410000D03*
%TO.P,U1,24,IO2*%
%TO.N,unconnected-(U1-Pad24)*%
X199120000Y-60410000D03*
D24*
%TO.P,U1,25,IO0*%
%TO.N,/PROG_I0*%
X202150000Y-59160000D03*
%TO.P,U1,26,IO4*%
%TO.N,unconnected-(U1-Pad26)*%
X202150000Y-57890000D03*
%TO.P,U1,27,IO16*%
%TO.N,/RX1*%
X202150000Y-56620000D03*
%TO.P,U1,28,IO17*%
%TO.N,/TX1*%
X202150000Y-55350000D03*
%TO.P,U1,29,IO5*%
%TO.N,/CS*%
X202150000Y-54080000D03*
%TO.P,U1,30,IO18*%
%TO.N,/CLK*%
X202150000Y-52810000D03*
%TO.P,U1,31,IO19*%
%TO.N,/MISO*%
X202150000Y-51540000D03*
%TO.P,U1,32,NC*%
%TO.N,unconnected-(U1-Pad32)*%
X202150000Y-50270000D03*
%TO.P,U1,33,IO21*%
%TO.N,/SDA*%
X202150000Y-49000000D03*
%TO.P,U1,34,RXD0/IO3*%
%TO.N,/PROG_TX*%
X202150000Y-47730000D03*
%TO.P,U1,35,TXD0/IO1*%
%TO.N,/PROG_RX*%
X202150000Y-46460000D03*
%TO.P,U1,36,IO22*%
%TO.N,/SCL*%
X202150000Y-45190000D03*
%TO.P,U1,37,IO23*%
%TO.N,/MOSI*%
X202150000Y-43920000D03*
%TO.P,U1,38,GND*%
%TO.N,GND*%
X202150000Y-42650000D03*
D26*
%TO.P,U1,39,GND*%
X194245000Y-49227500D03*
X191957500Y-51515000D03*
X191195000Y-50752500D03*
X191957500Y-49990000D03*
X194245000Y-50752500D03*
X193482500Y-51515000D03*
D27*
X192720000Y-49990000D03*
D26*
X191957500Y-48465000D03*
X192720000Y-49227500D03*
X191195000Y-49227500D03*
X193482500Y-48465000D03*
X193482500Y-49990000D03*
X192720000Y-50752500D03*
%TD*%
D10*
%TO.P,SW2,1,1*%
%TO.N,GND*%
X221125000Y-51448000D03*
%TO.P,SW2,2,2*%
%TO.N,/PROG_EN*%
X217061000Y-51448000D03*
%TD*%
%TO.P,U3,1,32KHZ*%
%TO.N,unconnected-(U3-Pad1)*%
X196105000Y-70290000D03*
%TO.P,U3,2,VCC*%
%TO.N,/3.3 VCC*%
X206265000Y-70290000D03*
%TO.P,U3,2'*%
%TO.N,N/C*%
X203725000Y-105900000D03*
%TO.P,U3,3,~{INT}/SQW*%
%TO.N,unconnected-(U3-Pad3)*%
X198645000Y-70290000D03*
%TO.P,U3,13,GND*%
%TO.N,GND*%
X208805000Y-70290000D03*
%TO.P,U3,13'*%
%TO.N,N/C*%
X206265000Y-105900000D03*
%TO.P,U3,15,SDA*%
%TO.N,/SDA*%
X203725000Y-70290000D03*
%TO.P,U3,15'*%
%TO.N,N/C*%
X201185000Y-105900000D03*
%TO.P,U3,16,SCL*%
%TO.N,/SCL*%
X201185000Y-70290000D03*
%TO.P,U3,16'*%
%TO.N,N/C*%
X198645000Y-105900000D03*
%TD*%
D17*
%TO.P,C1,1*%
%TO.N,GND*%
X187405112Y-70800000D03*
D15*
%TO.P,C1,2*%
%TO.N,/PROG_EN*%
X184905112Y-70800000D03*
%TD*%
D10*
%TO.P,J1,1,Pin_1*%
%TO.N,/3.3 VCC*%
X215785000Y-38151000D03*
%TO.P,J1,2,Pin_2*%
%TO.N,/PROG_I0*%
X218325000Y-38151000D03*
%TO.P,J1,3,Pin_3*%
%TO.N,/PROG_EN*%
X220865000Y-38151000D03*
%TO.P,J1,4,Pin_4*%
%TO.N,/PROG_TX*%
X223405000Y-38151000D03*
%TO.P,J1,5,Pin_5*%
%TO.N,/PROG_RX*%
X215785000Y-35611000D03*
%TO.P,J1,6,Pin_6*%
%TO.N,unconnected-(J1-Pad6)*%
X218325000Y-35611000D03*
%TO.P,J1,7,Pin_7*%
%TO.N,unconnected-(J1-Pad7)*%
X220865000Y-35611000D03*
%TO.P,J1,8,Pin_8*%
%TO.N,GND*%
X223405000Y-35611000D03*
%TD*%
D28*
%TO.N,GND*%
X187700000Y-58700000D03*
X200300000Y-42700000D03*
%TO.N,/PROG_I0*%
X216400000Y-44700000D03*
%TO.N,/PROG_TX*%
X200400000Y-47700000D03*
X212300000Y-40500000D03*
%TO.N,/PROG_RX*%
X200400000Y-46500000D03*
%TO.N,/CS*%
X203800000Y-54200000D03*
%TO.N,/CLK*%
X203700000Y-52800000D03*
%TO.N,/MISO*%
X203700000Y-51800000D03*
%TO.N,/E+ R*%
X235100000Y-82300000D03*
%TO.N,/HX Data*%
X182700000Y-56000000D03*
X187700000Y-63124500D03*
%TO.N,/HX clk*%
X197900000Y-63800000D03*
X182700000Y-54300000D03*
%TO.N,/wstrzas D*%
X182700000Y-52900000D03*
X186800000Y-83200000D03*
%TO.N,/wstrzas A*%
X182800000Y-51600000D03*
X185900000Y-81000000D03*
%TO.N,/RX1*%
X200600000Y-56600000D03*
%TO.N,/TX1*%
X203700000Y-55400000D03*
X199500000Y-66000000D03*
X196500000Y-66000000D03*
%TO.N,/SDA*%
X205900000Y-60500000D03*
%TO.N,/SCL*%
X205100000Y-58800000D03*
%TD*%
D29*
%TO.N,Net-(AE1-Pad1)*%
X229100000Y-130700000D02*
X233100000Y-126700000D01*
X215235000Y-126785000D02*
X219150000Y-130700000D01*
X219150000Y-130700000D02*
X229100000Y-130700000D01*
X233100000Y-126700000D02*
X241400000Y-126700000D01*
%TO.N,/Battery VCC*%
X229094888Y-118794888D02*
X229094888Y-117000000D01*
X224100000Y-126467677D02*
X229132323Y-126467677D01*
X230300000Y-125300000D02*
X230300000Y-120000000D01*
X184300000Y-97280000D02*
X186380000Y-97280000D01*
X184300000Y-93980000D02*
X183900000Y-93580000D01*
X224927211Y-117000000D02*
X229094888Y-117000000D01*
X213345000Y-124245000D02*
X215235000Y-124245000D01*
X184300000Y-97280000D02*
X184300000Y-93980000D01*
X229132323Y-126467677D02*
X230300000Y-125300000D01*
X230300000Y-120000000D02*
X229094888Y-118794888D01*
X217345000Y-124245000D02*
X219567677Y-126467677D01*
X219567677Y-126467677D02*
X224100000Y-126467677D01*
X186380000Y-97280000D02*
X213345000Y-124245000D01*
X215235000Y-124245000D02*
X217345000Y-124245000D01*
X222894888Y-114967677D02*
X224927211Y-117000000D01*
%TO.N,GND*%
X184650000Y-42650000D02*
X172711000Y-42650000D01*
X200350000Y-42650000D02*
X200300000Y-42700000D01*
X172711000Y-42650000D02*
X170535000Y-40474000D01*
X187690000Y-60410000D02*
X187690000Y-58710000D01*
X202150000Y-42650000D02*
X200350000Y-42650000D01*
X187690000Y-58710000D02*
X187700000Y-58700000D01*
D30*
%TO.N,/PROG_EN*%
X187120000Y-62500000D02*
X207600000Y-62500000D01*
X184350000Y-45190000D02*
X180040000Y-49500000D01*
X179900000Y-49500000D02*
X179900000Y-60080000D01*
X179900000Y-60080000D02*
X184720000Y-64900000D01*
X207600000Y-62500000D02*
X217061000Y-53039000D01*
X180040000Y-49500000D02*
X179900000Y-49500000D01*
X217061000Y-53039000D02*
X217061000Y-51448000D01*
X184720000Y-64900000D02*
X184720000Y-70614888D01*
X184650000Y-45190000D02*
X184350000Y-45190000D01*
X184720000Y-64900000D02*
X187120000Y-62500000D01*
X184720000Y-70614888D02*
X184905112Y-70800000D01*
D29*
%TO.N,/3.3 VCC*%
X214100000Y-35200000D02*
X215100000Y-34200000D01*
X243900000Y-51200000D02*
X229605000Y-65495000D01*
X215100000Y-34200000D02*
X242900000Y-34200000D01*
X242900000Y-34200000D02*
X243900000Y-35200000D01*
X202575000Y-68200000D02*
X195000000Y-68200000D01*
X183900000Y-83420000D02*
X183900000Y-79300000D01*
X206265000Y-70290000D02*
X204175000Y-68200000D01*
X185357606Y-83420000D02*
X205037606Y-103100000D01*
X178900000Y-49040000D02*
X178900000Y-72400000D01*
X229605000Y-65495000D02*
X226900000Y-68200000D01*
X215785000Y-38151000D02*
X214100000Y-36466000D01*
X195000000Y-68200000D02*
X194880000Y-68080000D01*
X203300000Y-68200000D02*
X202575000Y-68200000D01*
X184900000Y-78300000D02*
X195000000Y-68200000D01*
X194880000Y-68080000D02*
X194880000Y-64900000D01*
X205037606Y-103100000D02*
X210100000Y-103100000D01*
X184900000Y-78400000D02*
X184900000Y-78300000D01*
X204175000Y-68200000D02*
X203300000Y-68200000D01*
X243900000Y-35200000D02*
X243900000Y-45320000D01*
X214100000Y-36466000D02*
X214100000Y-35200000D01*
X243900000Y-45320000D02*
X243900000Y-51200000D01*
X178900000Y-72400000D02*
X184900000Y-78400000D01*
X183900000Y-79300000D02*
X184900000Y-78300000D01*
X213815000Y-106815000D02*
X219245000Y-106815000D01*
X210100000Y-103100000D02*
X213815000Y-106815000D01*
X226900000Y-68200000D02*
X203300000Y-68200000D01*
X184650000Y-43920000D02*
X184020000Y-43920000D01*
X183900000Y-83420000D02*
X185357606Y-83420000D01*
X241915000Y-43335000D02*
X243900000Y-45320000D01*
X184020000Y-43920000D02*
X178900000Y-49040000D01*
%TO.N,Net-(F1-Pad1)*%
X181497000Y-125568000D02*
X181497000Y-115323000D01*
X181497000Y-115323000D02*
X184300000Y-112520000D01*
D30*
%TO.N,/PROG_I0*%
X214800000Y-46270000D02*
X216370000Y-44700000D01*
X202150000Y-59160000D02*
X204115000Y-61125000D01*
X214800000Y-54805026D02*
X214800000Y-46270000D01*
X208205026Y-61400000D02*
X214800000Y-54805026D01*
X204400000Y-61400000D02*
X208205026Y-61400000D01*
X204125000Y-61125000D02*
X204400000Y-61400000D01*
X216370000Y-44700000D02*
X216400000Y-44700000D01*
X204115000Y-61125000D02*
X204125000Y-61125000D01*
%TO.N,/PROG_TX*%
X202150000Y-47730000D02*
X200430000Y-47730000D01*
X200430000Y-47730000D02*
X200400000Y-47700000D01*
X212300000Y-40500000D02*
X221056000Y-40500000D01*
X221056000Y-40500000D02*
X223405000Y-38151000D01*
%TO.N,/PROG_RX*%
X202150000Y-46460000D02*
X200440000Y-46460000D01*
X200440000Y-46460000D02*
X200400000Y-46500000D01*
%TO.N,/CS*%
X202270000Y-54200000D02*
X202150000Y-54080000D01*
X203800000Y-54200000D02*
X202270000Y-54200000D01*
%TO.N,/MOSI*%
X237420000Y-43920000D02*
X241915000Y-48415000D01*
X202150000Y-43920000D02*
X237420000Y-43920000D01*
%TO.N,/CLK*%
X203700000Y-52800000D02*
X202160000Y-52800000D01*
X202160000Y-52800000D02*
X202150000Y-52810000D01*
%TO.N,/MISO*%
X202410000Y-51800000D02*
X202150000Y-51540000D01*
X203700000Y-51800000D02*
X202410000Y-51800000D01*
%TO.N,Net-(J3-Pad1)*%
X241245000Y-92495000D02*
X243400000Y-90340000D01*
X243400000Y-90340000D02*
X243400000Y-87030000D01*
X243400000Y-87030000D02*
X241245000Y-84875000D01*
%TO.N,/A- R*%
X241245000Y-89955000D02*
X239645000Y-89955000D01*
X227420000Y-93600000D02*
X224525000Y-90705000D01*
X239645000Y-89955000D02*
X236000000Y-93600000D01*
X236000000Y-93600000D02*
X227420000Y-93600000D01*
%TO.N,/E+ R*%
X241245000Y-82335000D02*
X235135000Y-82335000D01*
X235135000Y-82335000D02*
X235100000Y-82300000D01*
%TO.N,Net-(J3-Pad6)*%
X241245000Y-79795000D02*
X243100000Y-77940000D01*
X243100000Y-77940000D02*
X243100000Y-74030000D01*
X243100000Y-74030000D02*
X241245000Y-72175000D01*
%TO.N,/A+ R*%
X227065000Y-88895000D02*
X227065000Y-90705000D01*
X241245000Y-74715000D02*
X227065000Y-88895000D01*
%TO.N,/E- R*%
X221985000Y-86355000D02*
X221985000Y-90705000D01*
X241245000Y-67095000D02*
X221985000Y-86355000D01*
%TO.N,/HX Data*%
X183350000Y-55350000D02*
X184650000Y-55350000D01*
X221880000Y-62850000D02*
X224525000Y-65495000D01*
X198955026Y-62850000D02*
X221880000Y-62850000D01*
X198680526Y-63124500D02*
X198955026Y-62850000D01*
X182700000Y-56000000D02*
X183350000Y-55350000D01*
X187700000Y-63124500D02*
X198680526Y-63124500D01*
%TO.N,/HX clk*%
X217407000Y-66507000D02*
X226053000Y-66507000D01*
X198500000Y-63800000D02*
X199100000Y-63200000D01*
X214100000Y-63200000D02*
X217407000Y-66507000D01*
X182700000Y-54300000D02*
X182920000Y-54080000D01*
X199100000Y-63200000D02*
X214100000Y-63200000D01*
X197900000Y-63800000D02*
X198500000Y-63800000D01*
X182920000Y-54080000D02*
X184650000Y-54080000D01*
X226053000Y-66507000D02*
X227065000Y-65495000D01*
%TO.N,/wstrzas D*%
X184560000Y-52900000D02*
X184650000Y-52810000D01*
X205335000Y-101735000D02*
X186800000Y-83200000D01*
X219245000Y-101735000D02*
X205335000Y-101735000D01*
X182700000Y-52900000D02*
X184560000Y-52900000D01*
%TO.N,/wstrzas A*%
X204095000Y-99195000D02*
X201650000Y-96750000D01*
X201650000Y-96750000D02*
X185900000Y-81000000D01*
X182800000Y-51600000D02*
X184590000Y-51600000D01*
X184590000Y-51600000D02*
X184650000Y-51540000D01*
X219245000Y-99195000D02*
X204095000Y-99195000D01*
%TO.N,/RX1*%
X202150000Y-56620000D02*
X200620000Y-56620000D01*
X200620000Y-56620000D02*
X200600000Y-56600000D01*
%TO.N,/TX1*%
X202150000Y-55350000D02*
X203650000Y-55350000D01*
X203650000Y-55350000D02*
X203700000Y-55400000D01*
X199500000Y-66000000D02*
X196500000Y-66000000D01*
%TO.N,/SDA*%
X204475000Y-51025000D02*
X204475000Y-59075000D01*
X202450000Y-49000000D02*
X204475000Y-51025000D01*
X202150000Y-49000000D02*
X202450000Y-49000000D01*
X204475000Y-59075000D02*
X205900000Y-60500000D01*
%TO.N,/SCL*%
X205100000Y-47710000D02*
X205100000Y-58800000D01*
X202580000Y-45190000D02*
X205100000Y-47710000D01*
X202150000Y-45190000D02*
X202580000Y-45190000D01*
D29*
%TO.N,Net-(BT1-Pad1)*%
X170535000Y-121754000D02*
X174349000Y-125568000D01*
X174349000Y-125568000D02*
X174639000Y-125568000D01*
%TD*%
M02*
