M48
; DRILL file {KiCad (6.0.9)} date Wed May  3 02:02:52 2023
; FORMAT={-:-/ absolute / metric / decimal}
; #@! TF.CreationDate,2023-05-03T02:02:52+02:00
; #@! TF.GenerationSoftware,Kicad,Pcbnew,(6.0.9)
; #@! TF.FileFunction,Plated,1,2,PTH
FMAT,2
METRIC
; #@! TA.AperFunction,Plated,PTH,ViaDrill
T1C0.500
; #@! TA.AperFunction,Plated,PTH,ComponentDrill
T2C0.508
; #@! TA.AperFunction,Plated,PTH,ComponentDrill
T3C0.762
; #@! TA.AperFunction,Plated,PTH,ComponentDrill
T4C0.800
; #@! TA.AperFunction,Plated,PTH,ComponentDrill
T5C0.900
; #@! TA.AperFunction,Plated,PTH,ComponentDrill
T6C1.000
; #@! TA.AperFunction,Plated,PTH,ComponentDrill
T7C1.200
; #@! TA.AperFunction,Plated,PTH,ComponentDrill
T8C1.500
; #@! TA.AperFunction,Plated,PTH,ComponentDrill
T9C1.700
%
G90
G05
T1
X182.7Y-52.9
X182.7Y-54.3
X182.7Y-56.0
X182.8Y-51.6
X185.9Y-81.0
X186.8Y-83.2
X187.7Y-58.7
X187.7Y-63.124
X196.5Y-66.0
X197.9Y-63.8
X199.5Y-66.0
X200.3Y-42.7
X200.4Y-46.5
X200.4Y-47.7
X200.6Y-56.6
X203.7Y-51.8
X203.7Y-52.8
X203.7Y-55.4
X203.8Y-54.2
X205.1Y-58.8
X205.9Y-60.5
X212.3Y-40.5
X216.4Y-44.7
X235.1Y-82.3
T2
X191.195Y-49.227
X191.195Y-50.752
X191.957Y-48.465
X191.957Y-49.99
X191.957Y-51.515
X192.72Y-49.227
X192.72Y-50.752
X193.482Y-48.465
X193.482Y-49.99
X193.482Y-51.515
X194.245Y-49.227
X194.245Y-50.752
T3
X170.535Y-40.474
X170.535Y-121.754
X192.575Y-111.545
X192.575Y-114.085
X192.575Y-116.625
X192.575Y-119.165
X192.575Y-121.705
X192.575Y-124.245
X196.105Y-70.29
X198.645Y-70.29
X198.645Y-105.9
X201.185Y-70.29
X201.185Y-105.9
X203.725Y-70.29
X203.725Y-105.9
X206.265Y-70.29
X206.265Y-105.9
X208.805Y-70.29
X215.235Y-114.085
X215.235Y-116.625
X215.235Y-119.165
X215.235Y-121.705
X215.235Y-124.245
X215.235Y-126.785
X215.785Y-35.611
X215.785Y-38.151
X217.061Y-51.448
X218.325Y-35.611
X218.325Y-38.151
X219.245Y-99.195
X219.245Y-101.735
X219.245Y-104.275
X219.245Y-106.815
X219.445Y-90.705
X220.865Y-35.611
X220.865Y-38.151
X221.125Y-51.448
X221.985Y-65.495
X221.985Y-90.705
X223.405Y-35.611
X223.405Y-38.151
X224.525Y-65.495
X224.525Y-90.705
X227.065Y-65.495
X227.065Y-90.705
X229.605Y-65.495
X229.605Y-90.705
X232.145Y-90.705
X241.245Y-64.555
X241.245Y-67.095
X241.245Y-69.635
X241.245Y-72.175
X241.245Y-74.715
X241.245Y-77.255
X241.245Y-79.795
X241.245Y-82.335
X241.245Y-84.875
X241.245Y-87.415
X241.245Y-89.955
X241.245Y-92.495
X241.915Y-35.715
X241.915Y-38.255
X241.915Y-40.795
X241.915Y-43.335
X241.915Y-45.875
X241.915Y-48.415
X241.915Y-50.955
T4
X184.72Y-64.9
X184.905Y-70.8
X187.405Y-70.8
X194.88Y-64.9
X222.895Y-114.968
X225.395Y-114.968
X229.095Y-117.0
X231.595Y-117.0
T5
X183.9Y-83.42
X183.9Y-93.58
T6
X224.1Y-121.468
X224.1Y-126.468
T7
X184.3Y-97.28
X184.3Y-112.52
T8
X241.4Y-126.7
T9
X238.86Y-124.16
X238.86Y-129.24
X243.94Y-124.16
X243.94Y-129.24
T3
G00X174.639Y-123.664
M15
G01X174.639Y-127.472
M16
G05
G00X181.497Y-123.664
M15
G01X181.497Y-127.472
M16
G05
T0
M30
