%TF.GenerationSoftware,KiCad,Pcbnew,(6.0.9)*%
%TF.CreationDate,2023-05-03T02:02:48+02:00*%
%TF.ProjectId,esp-merged_v2,6573702d-6d65-4726-9765-645f76322e6b,rev?*%
%TF.SameCoordinates,Original*%
%TF.FileFunction,Soldermask,Top*%
%TF.FilePolarity,Negative*%
%FSLAX46Y46*%
G04 Gerber Fmt 4.6, Leading zero omitted, Abs format (unit mm)*
G04 Created by KiCad (PCBNEW (6.0.9)) date 2023-05-03 02:02:48*
%MOMM*%
%LPD*%
G01*
G04 APERTURE LIST*
%ADD10C,1.524000*%
%ADD11R,1.800000X1.800000*%
%ADD12O,1.800000X1.800000*%
%ADD13C,2.400000*%
%ADD14O,2.400000X2.400000*%
%ADD15C,1.600000*%
%ADD16O,1.600000X1.600000*%
%ADD17R,1.600000X1.600000*%
%ADD18C,2.050000*%
%ADD19C,2.250000*%
%ADD20O,1.524000X5.332000*%
%ADD21R,2.000000X2.000000*%
%ADD22C,2.000000*%
%ADD23C,1.300000*%
%ADD24R,1.500000X0.900000*%
%ADD25R,0.900000X1.500000*%
%ADD26C,0.762000*%
%ADD27R,4.200000X4.200000*%
G04 APERTURE END LIST*
D10*
%TO.C,BT1*%
X170535000Y-121754000D03*
X170535000Y-40474000D03*
%TD*%
%TO.C,U2*%
X215235000Y-114085000D03*
X215235000Y-116625000D03*
X215235000Y-119165000D03*
X215235000Y-121705000D03*
X215235000Y-124245000D03*
X215235000Y-126785000D03*
X192575000Y-124245000D03*
X192575000Y-121705000D03*
X192575000Y-119165000D03*
X192575000Y-116625000D03*
X192575000Y-114085000D03*
X192575000Y-111545000D03*
%TD*%
D11*
%TO.C,D1*%
X183900000Y-83420000D03*
D12*
X183900000Y-93580000D03*
%TD*%
D10*
%TO.C,J2*%
X241915000Y-50955000D03*
X241915000Y-48415000D03*
X241915000Y-45875000D03*
X241915000Y-43335000D03*
X241915000Y-40795000D03*
X241915000Y-38255000D03*
X241915000Y-35715000D03*
%TD*%
D13*
%TO.C,F1*%
X184300000Y-112520000D03*
D14*
X184300000Y-97280000D03*
%TD*%
D15*
%TO.C,R1*%
X194880000Y-64900000D03*
D16*
X184720000Y-64900000D03*
%TD*%
D17*
%TO.C,C3*%
X229094888Y-117000000D03*
D15*
X231594888Y-117000000D03*
%TD*%
D18*
%TO.C,AE1*%
X241400000Y-126700000D03*
D19*
X238860000Y-124160000D03*
X243940000Y-129240000D03*
X238860000Y-129240000D03*
X243940000Y-124160000D03*
%TD*%
D17*
%TO.C,C4*%
X222894888Y-114967677D03*
D15*
X225394888Y-114967677D03*
%TD*%
D20*
%TO.C,SW1*%
X174639000Y-125568000D03*
X181497000Y-125568000D03*
%TD*%
D21*
%TO.C,C2*%
X224100000Y-126467677D03*
D22*
X224100000Y-121467677D03*
%TD*%
D23*
%TO.C,J3*%
X241245000Y-92495000D03*
X241245000Y-89955000D03*
X241245000Y-87415000D03*
X241245000Y-84875000D03*
X241245000Y-82335000D03*
X241245000Y-79795000D03*
X241245000Y-77255000D03*
X241245000Y-74715000D03*
X241245000Y-72175000D03*
X241245000Y-69635000D03*
X241245000Y-67095000D03*
X241245000Y-64555000D03*
%TD*%
D10*
%TO.C,S1*%
X219245000Y-106815000D03*
X219245000Y-104275000D03*
X219245000Y-101735000D03*
X219245000Y-99195000D03*
%TD*%
%TO.C,M1*%
X219445000Y-90705000D03*
X221985000Y-90705000D03*
X224525000Y-90705000D03*
X227065000Y-90705000D03*
X229605000Y-90705000D03*
X232145000Y-90705000D03*
X221985000Y-65495000D03*
X224525000Y-65495000D03*
X227065000Y-65495000D03*
X229605000Y-65495000D03*
%TD*%
D24*
%TO.C,U1*%
X184650000Y-42650000D03*
X184650000Y-43920000D03*
X184650000Y-45190000D03*
X184650000Y-46460000D03*
X184650000Y-47730000D03*
X184650000Y-49000000D03*
X184650000Y-50270000D03*
X184650000Y-51540000D03*
X184650000Y-52810000D03*
X184650000Y-54080000D03*
X184650000Y-55350000D03*
X184650000Y-56620000D03*
X184650000Y-57890000D03*
X184650000Y-59160000D03*
D25*
X187690000Y-60410000D03*
X188960000Y-60410000D03*
X190230000Y-60410000D03*
X191500000Y-60410000D03*
X192770000Y-60410000D03*
X194040000Y-60410000D03*
X195310000Y-60410000D03*
X196580000Y-60410000D03*
X197850000Y-60410000D03*
X199120000Y-60410000D03*
D24*
X202150000Y-59160000D03*
X202150000Y-57890000D03*
X202150000Y-56620000D03*
X202150000Y-55350000D03*
X202150000Y-54080000D03*
X202150000Y-52810000D03*
X202150000Y-51540000D03*
X202150000Y-50270000D03*
X202150000Y-49000000D03*
X202150000Y-47730000D03*
X202150000Y-46460000D03*
X202150000Y-45190000D03*
X202150000Y-43920000D03*
X202150000Y-42650000D03*
D26*
X194245000Y-49227500D03*
X191957500Y-51515000D03*
X191195000Y-50752500D03*
X191957500Y-49990000D03*
X194245000Y-50752500D03*
X193482500Y-51515000D03*
D27*
X192720000Y-49990000D03*
D26*
X191957500Y-48465000D03*
X192720000Y-49227500D03*
X191195000Y-49227500D03*
X193482500Y-48465000D03*
X193482500Y-49990000D03*
X192720000Y-50752500D03*
%TD*%
D10*
%TO.C,SW2*%
X221125000Y-51448000D03*
X217061000Y-51448000D03*
%TD*%
%TO.C,U3*%
X196105000Y-70290000D03*
X206265000Y-70290000D03*
X203725000Y-105900000D03*
X198645000Y-70290000D03*
X208805000Y-70290000D03*
X206265000Y-105900000D03*
X203725000Y-70290000D03*
X201185000Y-105900000D03*
X201185000Y-70290000D03*
X198645000Y-105900000D03*
%TD*%
D17*
%TO.C,C1*%
X187405112Y-70800000D03*
D15*
X184905112Y-70800000D03*
%TD*%
D10*
%TO.C,J1*%
X215785000Y-38151000D03*
X218325000Y-38151000D03*
X220865000Y-38151000D03*
X223405000Y-38151000D03*
X215785000Y-35611000D03*
X218325000Y-35611000D03*
X220865000Y-35611000D03*
X223405000Y-35611000D03*
%TD*%
M02*
